<svg aria-hidden="true" data-prefix="fad" data-icon="phone-volume" xmlns="http://www.w3.org/2000/svg" viewBox="0 0 384 512" class="svg-inline--fa fa-phone-volume fa-w-12 fa-2x"><g class="fa-group"><path fill="#DCDCDC" d="M292.94 49.23a12.06 12.06 0 00-17.85-1.31l-5.82 5.58A12 12 0 00268 69.43a96.12 96.12 0 010 117.14 12 12 0 001.29 15.93l5.82 5.58a12.06 12.06 0 0017.85-1.31 128.18 128.18 0 00-.02-157.54zm46-44.94a12 12 0 00-17.55-.94l-5.8 5.56a12 12 0 00-.93 16.38 160.22 160.22 0 010 205.42 12 12 0 00.93 16.38l5.8 5.56a12 12 0 0017.55-.94 192.25 192.25 0 00-.03-247.42zm-110.5 88.6l-6 5.73a12.09 12.09 0 00-2.27 14.38 32 32 0 010 29.94 12.09 12.09 0 002.26 14.41l6 5.73a12.05 12.05 0 0018.72-2.58 64.07 64.07 0 000-65.06 12.05 12.05 0 00-18.74-2.55z" class="fa-secondary"/><path fill="#DCDCDC" d="M84.38 182.24a265.55 265.55 0 000 179.52l55.81-5.58a17.18 17.18 0 0117.67 10.71l32.4 81a17.17 17.17 0 01-6.85 20.95l-64.81 40.55A17.2 17.2 0 0197.33 507c-129.87-129.91-129.68-340.29 0-470a17.2 17.2 0 0121.27-2.42l64.81 40.51a17.18 17.18 0 016.85 21l-32.41 81a17.18 17.18 0 01-17.66 10.72z" class="fa-primary"/></g></svg>